<svg width="242" height="245" viewBox="0 0 242 245" fill="none" xmlns="http://www.w3.org/2000/svg">
    <ellipse cx="121" cy="122.5" rx="121" ry="122.5" fill="#D3602F"/>
    <path fill-rule="evenodd" clip-rule="evenodd" d="M240.077 144.371C241.34 137.274 242 129.965 242 122.5C242 120.477 241.952 118.466 241.856 116.467L203.936 92.0221V121.073L240.077 144.371ZM238.22 153L203.936 130.899V159.949L229.633 176.514C233.25 169.071 236.144 161.201 238.22 153ZM7.35781 164.663L45.3518 189V159.949L0.292615 131.086C1.09437 142.809 3.5253 154.078 7.35781 164.663ZM0.00798798 121.078L45.3518 150.124V121.073L3.26519 94.1137C1.2338 102.782 0.112157 111.806 0.00798798 121.078ZM5.3216 86.4597L45.3518 112.101V83.0509L14.9067 63.5488C10.982 70.7728 7.75621 78.4409 5.3216 86.4597ZM231.033 71.468L203.936 54V83.0506L241.037 106.967C239.472 94.4469 236.04 82.5154 231.033 71.468ZM198.368 54L153.296 83.0508V112.101L198.368 83.0506V54ZM102.387 121.073V92.0221L147.451 121.073V150.123L102.387 121.073ZM102.387 159.949V130.899L147.451 159.949V189L102.387 159.949ZM153.296 121.073L198.368 92.0221V121.073L153.296 150.123V121.073ZM198.368 130.899L153.296 159.949V189L198.368 159.949V130.899ZM102.387 54V83.0508L147.451 112.101V83.0508L102.387 54ZM51.2019 83.0509L96.5319 54V83.0506L51.2019 112.101V83.0509ZM96.5319 92.0221L51.2019 121.073V150.124L96.5319 121.073V92.0221ZM51.2019 159.949L96.5319 130.899V159.949L51.2019 189V159.949Z" fill="#FFF2CC"/>
</svg>
